<svg xmlns="http://www.w3.org/2000/svg" width="80.836" height="56.323" viewBox="0 0 80.836 56.323">
  <g id="Group_5969" data-name="Group 5969" transform="translate(6276.246 2929.109)">
    <g id="chalepa-sketch-croped" transform="translate(-6276 -2929)">
      <path id="Path_4862" data-name="Path 4862" d="M385.96,241.357c-.011-1.41-.068-3.1-.036-4.378a6.346,6.346,0,0,0-6.438-1.779l.039-.05c0,1.2-.033,3.608-.053,4.805-.018-1.2-.046-3.607-.053-4.805v-.04l.039-.01a6.344,6.344,0,0,1,6.534,1.812c.031,1.467-.022,2.967-.036,4.446h0Z" transform="translate(-345.463 -229.672)" fill="#081815" stroke="#081815" stroke-width="0.2"/>
      <path id="Path_4863" data-name="Path 4863" d="M171.771,76.9l4.236-5.622.056-.076V71.3l-.107,6.49-.032-.04,9.309,1.955-.066.054c-.007-1.836,0-5.528,0-7.365v-.064l.063.007,2.038.242-.039.094-5.867-4.8c.2-.012-5.847,1.352-5.7,1.305q-1.151,1.649-2.327,3.278-.588.815-1.181,1.627a18.517,18.517,0,0,1-1.24,1.58,18,18,0,0,0,1.226-1.59q.587-.815,1.167-1.637l2.31-3.305c0-.011,5.758-1.322,5.766-1.331l.02,0,.016.012,5.882,4.787.141.115-.181-.021-2.038-.236.063-.056,0,3.682-.006,3.682v.068l-.066-.015c-.034-.009-9.305-1.983-9.336-1.991-.009-.013.131-6.5.126-6.523l.055.02L171.773,76.9h0l0,0Z" transform="translate(-143.409 -67.79)" fill="#081815" stroke="#081815" stroke-width="0.2"/>
      <path id="Path_4864" data-name="Path 4864" d="M185.174,111.61c-1.036-.806-3.1-2.44-4.125-3.256l.043.01c-1.626.4-3.9.956-5.5,1.34l.045-.056v.679c-.682.923-1.43,1.824-2.139,2.735s-1.43,1.806-2.151,2.7l-.009-.016-.479-.873.5.86c.6-.877,1.4-1.83,2.069-2.729.67-.855,1.482-1.954,2.092-2.681V109.6c1.61-.4,3.91-.939,5.547-1.334l.024-.006.018.015c1.014.826,3.057,2.5,4.064,3.333h0Z" transform="translate(-143.361 -107.007)" fill="#081815" stroke="#081815" stroke-width="0.2"/>
      <path id="Path_4865" data-name="Path 4865" d="M379.78,249.98c2.194.551,4.38,1.186,6.529,1.9-2.195-.552-4.38-1.186-6.529-1.9Z" transform="translate(-345.812 -244.339)" fill="#081815" stroke="#081815" stroke-width="0.2"/>
      <path id="Path_4866" data-name="Path 4866" d="M426.175,264.02a38.931,38.931,0,0,1,0,4.407,38.874,38.874,0,0,1,0-4.407Z" transform="translate(-390.71 -257.944)" fill="#081815" stroke="#081815" stroke-width="0.2"/>
      <path id="Path_4867" data-name="Path 4867" d="M476.475,280.58a13.241,13.241,0,0,1,0,4.469,13.238,13.238,0,0,1,0-4.469Z" transform="translate(-439.329 -273.992)" fill="#081815" stroke="#081815" stroke-width="0.2"/>
      <path id="Path_4868" data-name="Path 4868" d="M531.825,294.7a35.592,35.592,0,0,1,0,4.216,35.592,35.592,0,0,1,0-4.216Z" transform="translate(-493.089 -287.674)" fill="#081815" stroke="#081815" stroke-width="0.2"/>
      <path id="Path_4869" data-name="Path 4869" d="M381.16,332.81c2.175.436,4.348.956,6.486,1.552-2.177-.437-4.348-.956-6.486-1.552Z" transform="translate(-347.149 -324.605)" fill="#081815" stroke="#081815" stroke-width="0.2"/>
      <path id="Path_4870" data-name="Path 4870" d="M1175.46,487.835c-.011-.974-.068-2.228-.035-3.065a4.468,4.468,0,0,0-4.509-1.245l.039-.05-.018,1.688c-.005.42-.023,1.268-.033,1.688-.027-.941-.042-2.423-.053-3.375v-.04a5.8,5.8,0,0,1,1.281-.19,4.412,4.412,0,0,1,3.364,1.457l.015.015v.02c-.011,1.033-.022,2.066-.05,3.1h0Z" transform="translate(-1112.389 -470.378)" fill="#081815" stroke="#081815" stroke-width="0.2"/>
      <path id="Path_4871" data-name="Path 4871" d="M939.157,371.517c1.387-.766,4.171-2.3,5.558-3.067l.049-.027v.056l-.072,4.56-.033-.041,6.541,1.37-.067.054c-.008-1.323,0-3.915,0-5.238l.063.007,1.432.172-.04.094-4.12-3.377c.2,0-4.091.935-4,.923-.987.566-3.552,2.031-4.509,2.577-.5.288-1,.572-1.5.867.843-.52,2.114-1.245,2.981-1.761q1.495-.878,3-1.746c.028,0,4.041-.939,4.067-.94s4.13,3.373,4.151,3.374l.142.115-.182-.021-1.432-.165.063-.056,0,2.587,0,2.587v.068l-.067-.015c-.038-.013-6.536-1.393-6.57-1.4-.017-.032.1-4.56.091-4.594l.049.029c-1.39.752-4.2,2.261-5.59,3.009h0v0Z" transform="translate(-887.193 -356.766)" fill="#081815" stroke="#081815" stroke-width="0.2"/>
      <path id="Path_4872" data-name="Path 4872" d="M958.147,396.953c-.911-.728-2.1-1.6-2.866-2.27-.963.24-2.9.715-3.862.95l.046-.059v.513l-.033.017c-.9.477-3.206,1.706-4.077,2.158l-1.365.709-.011.006-.006-.011-.333-.615.355.6-.017,0,1.345-.746c.85-.47,3.168-1.725,4.052-2.2l-.032.053v-.525c.985-.237,2.926-.7,3.914-.933l.022-.005.017.015c.952.779,1.9,1.56,2.847,2.35h0l0,0Z" transform="translate(-894.152 -384.471)" fill="#081815" stroke="#081815" stroke-width="0.2"/>
      <path id="Path_4873" data-name="Path 4873" d="M1171.561,494.44a45.631,45.631,0,0,1,4.587,1.332,45.475,45.475,0,0,1-4.587-1.332Z" transform="translate(-1113.077 -481.23)" fill="#081815" stroke="#081815" stroke-width="0.2"/>
      <path id="Path_4874" data-name="Path 4874" d="M1203.605,504.29a19.192,19.192,0,0,1,0,3.1,19.22,19.22,0,0,1,0-3.1Z" transform="translate(-1144.068 -490.775)" fill="#081815" stroke="#081815" stroke-width="0.2"/>
      <path id="Path_4875" data-name="Path 4875" d="M1237.749,515.95a6.6,6.6,0,0,1,0,3.14,6.6,6.6,0,0,1,0-3.14Z" transform="translate(-1177.033 -502.074)" fill="#081815" stroke="#081815" stroke-width="0.2"/>
      <path id="Path_4876" data-name="Path 4876" d="M1277.81,525.88a17.422,17.422,0,0,1,0,2.962,17.472,17.472,0,0,1,0-2.962Z" transform="translate(-1215.976 -511.696)" fill="#081815" stroke="#081815" stroke-width="0.2"/>
      <path id="Path_4877" data-name="Path 4877" d="M1172.55,552.64a44.009,44.009,0,0,1,4.557,1.091,44.072,44.072,0,0,1-4.557-1.091Z" transform="translate(-1114.035 -537.628)" fill="#081815" stroke="#081815" stroke-width="0.2"/>
      <path id="Path_4878" data-name="Path 4878" d="M-556.475,240.844c-22.355-6.2-45.016-11.32-67.75-15.928-2.419-.453-4.91-.929-7.349-1.265a20.4,20.4,0,0,0-2.473-.224c.011-.048,0,2.709,0,2.7s-.009-2.708-.007-2.716h.007l.622.018c3.1.256,6.157.869,9.212,1.422,22.747,4.547,45.418,9.658,67.737,15.992h0Z" transform="translate(636.631 -218.592)" fill="#081815" stroke="#081815" stroke-width="0.2"/>
      <path id="Path_4879" data-name="Path 4879" d="M-633.81,249.98c4.544.794,10.166,1.809,14.666,2.7,19.5,3.833,38.95,8.119,58.126,13.339,1.6.436,3.188.9,4.779,1.366-1.594-.452-3.185-.911-4.787-1.337-24-6.362-48.361-11.6-72.785-16.066Z" transform="translate(636.394 -244.339)" fill="#081815" stroke="#081815" stroke-width="0.2"/>
      <path id="Path_4880" data-name="Path 4880" d="M-633.81,271.61c4.544.794,10.166,1.809,14.666,2.7,19.5,3.833,38.95,8.119,58.126,13.339,1.6.436,3.188.9,4.779,1.366-1.594-.452-3.185-.911-4.787-1.337-24-6.362-48.361-11.6-72.785-16.066Z" transform="translate(636.394 -265.299)" fill="#081815" stroke="#081815" stroke-width="0.2"/>
      <path id="Path_4881" data-name="Path 4881" d="M-528.24,406.63q27.945,4.231,55.615,10.072c6.153,1.317,12.29,2.711,18.39,4.258.016.044.546,25,.533,25.029l-5.928,1.026,5.923-1.052c-.026.092-.65-25.152-.583-24.925-6.089-1.534-12.218-2.915-18.359-4.22-18.429-3.922-36.975-7.274-55.589-10.185h0Z" transform="translate(534.093 -396.139)" fill="#081815" stroke="#081815" stroke-width="0.2"/>
      <path id="Path_4882" data-name="Path 4882" d="M203.76,808.061c2.647.28,5.3.645,7.927,1.09-2.648-.28-5.3-.645-7.927-1.09Z" transform="translate(-175.242 -785.14)" fill="#081815" stroke="#081815" stroke-width="0.2"/>
      <path id="Path_4883" data-name="Path 4883" d="M203.76,820.55c2.489.257,5.219.606,7.692.983-2.489-.257-5.219-.606-7.692-.983Z" transform="translate(-175.242 -797.243)" fill="#081815" stroke="#081815" stroke-width="0.2"/>
      <path id="Path_4884" data-name="Path 4884" d="M209.315,831.031c0-.015-7.557-.91-7.463-.979l.345.269.007,0v.009c-.009-.01.05,12.775-.016,12.618l6.871.5c-.063.155-.021-12.221-.037-12.183l.293-.236h0Zm0,0-.291.237c.009.012.051,12.214.058,12.23-.013.016-6.879-.5-6.9-.485-.075.039,0-12.707-.009-12.663l-.344-.269-.051-.04.064.009,7.471.983h0Z" transform="translate(-173.323 -806.439)" fill="#081815" stroke="#081815" stroke-width="0.2"/>
      <path id="Path_4885" data-name="Path 4885" d="M250.649,894.612c.563-.639,4.164,0,4.617.706.011.005.01,9.1.016,9.106v.034l-.034,0-4.586-.489-.021,0v-.021c0-2.326,0-7,.009-9.33h0Zm0,0c-.007,2.277.076,7.142.017,9.307l4.588.475-.034.031s.011-9.126.016-9.087c-.453-.686-4.021-1.355-4.587-.725h0Z" transform="translate(-220.671 -868.756)" fill="#081815" stroke="#081815" stroke-width="0.2"/>
      <path id="Path_4886" data-name="Path 4886" d="M252.48,1213.387q-2.448-.156-4.88-.5,2.448.156,4.88.5Z" transform="translate(-217.725 -1177.435)" fill="#081815" stroke="#081815" stroke-width="0.2"/>
      <path id="Path_4887" data-name="Path 4887" d="M257.828,914.431q-2.275-.215-4.528-.611,2.275.213,4.528.611Z" transform="translate(-223.248 -887.625)" fill="#081815" stroke="#081815" stroke-width="0.2"/>
      <path id="Path_4888" data-name="Path 4888" d="M253.3,927.06c1.028.115,3.092.356,4.118.484l.036,0v.036l.006,2.124c0,1.973-.012,4.409-.045,6.371-.033-1.959-.043-4.4-.045-6.371l.006-2.124.036.04c-1.025-.133-3.086-.417-4.108-.563h0Z" transform="translate(-223.248 -900.455)" fill="#081815" stroke="#081815" stroke-width="0.2"/>
      <path id="Path_4889" data-name="Path 4889" d="M260.706,948.381c-.043-2.042-.05-4.085-.042-6.127,0-.68.009-1.361.016-2.042l.022.026-1.442-.207,1.448.157.022,0c.007.688.016,1.377.016,2.065.009,2.043,0,4.085-.042,6.127h0Z" transform="translate(-229.024 -913.023)" fill="#081815" stroke="#081815" stroke-width="0.2"/>
      <path id="Path_4890" data-name="Path 4890" d="M254.93,1017.813a7.175,7.175,0,0,1-1.63-.2,7.19,7.19,0,0,1,1.63.2Z" transform="translate(-223.248 -988.201)" fill="#081815" stroke="#081815" stroke-width="0.2"/>
      <path id="Path_4891" data-name="Path 4891" d="M254.93,1104.144a7.137,7.137,0,0,1-1.63-.195,7.17,7.17,0,0,1,1.63.195Z" transform="translate(-223.248 -1071.867)" fill="#081815" stroke="#081815" stroke-width="0.2"/>
      <path id="Path_4892" data-name="Path 4892" d="M254.93,1190.325a7.148,7.148,0,0,1-1.63-.161,7.134,7.134,0,0,1,1.63.161Z" transform="translate(-223.248 -1155.411)" fill="#081815" stroke="#081815" stroke-width="0.2"/>
      <path id="Path_4893" data-name="Path 4893" d="M311.591,952.106c.451.038,1.1.107,1.556.157l-.044.038-.007-1.182.009-1.183.032.037c-.484-.077-.968-.154-1.449-.242.489.048.974.109,1.461.169l.032,0v.033c.007.589.009,1.775,0,2.364v.045l-.044-.006c-.455-.067-1.1-.156-1.546-.234h0Z" transform="translate(-279.733 -922.423)" fill="#081815" stroke="#081815" stroke-width="0.2"/>
      <path id="Path_4894" data-name="Path 4894" d="M312.16,1044.857c.509.037,1.017.09,1.524.153l-.048.042c-.006-.759,0-1.553.043-2.312.04.756.049,1.552.043,2.312v.049c-.523-.07-1.043-.148-1.562-.244h0Z" transform="translate(-280.285 -1012.553)" fill="#081815" stroke="#081815" stroke-width="0.2"/>
      <path id="Path_4895" data-name="Path 4895" d="M311.61,1129.828c.519.019,1.038.057,1.555.1l-.046.043c-.006-.754,0-1.508.043-2.262.04.754.049,1.508.043,2.262v.048c-.534-.052-1.065-.113-1.594-.193h0Z" transform="translate(-279.753 -1094.893)" fill="#081815" stroke="#081815" stroke-width="0.2"/>
      <path id="Path_4896" data-name="Path 4896" d="M222.54,1402.9c2.123.031,4.456.131,6.573.283-2.123-.031-4.456-.131-6.573-.283Z" transform="translate(-193.441 -1361.562)" fill="#081815" stroke="#081815" stroke-width="0.2"/>
      <path id="Path_4897" data-name="Path 4897" d="M230.925,1411.64c0-.016-6.536-.195-6.446-.273l.283.2c.013,0,.159,10.771.16,10.781l-.031-.029c-.013-.006,5.741-.232,5.619-.185-.007-2.589-.009-7.8-.007-10.387,0,0,.419-.1.42-.1h0Zm0,0s-.424.109-.417.1c.016,2.589.043,7.8.05,10.387v.022h-.022l-5.64.223h-.031v-.029c.011.006-.148-10.822-.122-10.752l-.283-.2-.05-.036.061,0,6.455.276h0Z" transform="translate(-195.253 -1369.76)" fill="#081815" stroke="#081815" stroke-width="0.2"/>
      <path id="Path_4898" data-name="Path 4898" d="M269.2,1457.8c.436-.579,3.374-.405,3.791.177.013,0,.009,7.706.016,7.711v.031h-.031l-3.766.046h-.024v-4l.012-3.968h0Zm0,0,.023,3.973.013,3.968-.024-.024,3.766-.059c-.078.2,0-7.749-.013-7.664-.42-.562-3.325-.766-3.763-.195h0Z" transform="translate(-238.646 -1414.417)" fill="#081815" stroke="#081815" stroke-width="0.2"/>
      <path id="Path_4899" data-name="Path 4899" d="M270.972,1730.382q-2.033.129-4.072.072,2.033-.128,4.072-.072Z" transform="translate(-236.427 -1678.887)" fill="#081815" stroke="#081815" stroke-width="0.2"/>
      <path id="Path_4900" data-name="Path 4900" d="M275.277,1477.927q-1.86.04-3.717-.1,1.86-.041,3.717.1Z" transform="translate(-240.943 -1434.156)" fill="#081815" stroke="#081815" stroke-width="0.2"/>
      <path id="Path_4901" data-name="Path 4901" d="M271.57,1489.4c.842,0,2.535.013,3.377.027h.039v.04c.01,2.29.005,4.906-.039,7.189-.034-1.657-.043-3.725-.045-5.392l.006-1.8.039.04c-.841-.02-2.535-.074-3.375-.106h0Z" transform="translate(-240.952 -1445.383)" fill="#081815" stroke="#081815" stroke-width="0.2"/>
      <path id="Path_4902" data-name="Path 4902" d="M277.7,1506.79c-.043-1.739-.05-3.478-.041-5.217,0-.579.01-1.159.016-1.738l.024.024-1.185-.046,1.186,0h.024c.007.588.016,1.176.017,1.764.009,1.738,0,3.478-.042,5.216h0Z" transform="translate(-245.739 -1455.471)" fill="#081815" stroke="#081815" stroke-width="0.2"/>
      <path id="Path_4903" data-name="Path 4903" d="M272.908,1565.356a4.756,4.756,0,0,1-1.338-.023,4.756,4.756,0,0,1,1.338.023Z" transform="translate(-240.952 -1518.93)" fill="#081815" stroke="#081815" stroke-width="0.2"/>
      <path id="Path_4904" data-name="Path 4904" d="M272.908,1638.785a4.76,4.76,0,0,1-1.338-.016,4.76,4.76,0,0,1,1.338.016Z" transform="translate(-240.952 -1590.089)" fill="#081815" stroke="#081815" stroke-width="0.2"/>
      <path id="Path_4905" data-name="Path 4905" d="M272.948,1711.7a4.779,4.779,0,0,1-1.338.012,4.779,4.779,0,0,1,1.338-.012Z" transform="translate(-240.991 -1660.763)" fill="#081815" stroke="#081815" stroke-width="0.2"/>
      <path id="Path_4906" data-name="Path 4906" d="M319.411,1504.993c.425-.013.85-.013,1.274-.016l-.039.039-.007-1.006.009-1.006.036.037c-.4-.022-.8-.044-1.194-.079.41-.007.821,0,1.231.005V1503l.009,1.006-.007,1.006v.04c-.437-.017-.875-.033-1.312-.064h0Z" transform="translate(-287.311 -1458.522)" fill="#081815" stroke="#081815" stroke-width="0.2"/>
      <path id="Path_4907" data-name="Path 4907" d="M319.842,1579.922c.416-.018.833-.022,1.247-.016l-.043.042c0-.164-.006-.328,0-.492,0-.478.012-1,.044-1.475.041.644.049,1.321.041,1.967v.043c-.431-.011-.86-.032-1.289-.07h0Z" transform="translate(-287.728 -1531.221)" fill="#081815" stroke="#081815" stroke-width="0.2"/>
      <path id="Path_4908" data-name="Path 4908" d="M319.45,1652.184c.424-.034.848-.053,1.273-.061l-.042.043c0-.16,0-.321,0-.481,0-.466.012-.98.044-1.444.04.63.049,1.294.043,1.926v.042c-.439,0-.878,0-1.316-.023h0Z" transform="translate(-287.35 -1601.243)" fill="#081815" stroke="#081815" stroke-width="0.2"/>
      <path id="Path_4909" data-name="Path 4909" d="M230.79,442.167l.017.71v0l0,0c-.187.3-.441.725-.6.95.006.353,0,.706.007,1.059v.05l-.05-.009-.7-.122-.038-.006c.01-.582-.007-1.38.016-1.95l.553-.867.007-.012.013,0,.78.185h0Zm0,0-.788-.146.021-.009-.526.884c.023.447.007,1.349.016,1.874l-.038-.045.7.128-.05.041c0-.353,0-.706.007-1.059.192-.312.448-.687.638-.959l.017-.71h0Z" transform="translate(-200.108 -430.394)" fill="#081815" stroke="#081815" stroke-width="0.2"/>
      <path id="Path_4910" data-name="Path 4910" d="M246.936,442.69a5.305,5.305,0,0,1,.045.71l-.036-.044a5.564,5.564,0,0,1,.775.209,5.388,5.388,0,0,1-.793-.121l-.037-.007a5.483,5.483,0,0,1,.045-.747h0Z" transform="translate(-217.037 -431.082)" fill="#081815" stroke="#081815" stroke-width="0.2"/>
      <path id="Path_4911" data-name="Path 4911" d="M1469.044,725.5l.017.421v.005l0,0c-.1.164-.272.466-.348.56.006.209.005.419.008.629v.05l-.05-.009-.419-.071-.038-.006v-.038c.005-.336,0-.8.011-1.135.115-.177.229-.355.346-.531l.012,0,.462.118h0Zm0,0-.47-.078.02-.009c-.091.147-.239.43-.3.509.007.326.007.793.011,1.124l-.038-.045.417.077-.05.042c0-.209,0-.419.007-.629a.022.022,0,0,1,.006-.02c.122-.172.272-.414.381-.549l.017-.421h0Z" transform="translate(-1400.542 -705.019)" fill="#081815" stroke="#081815" stroke-width="0.2"/>
      <path id="Path_4912" data-name="Path 4912" d="M1478.646,726.09a1.894,1.894,0,0,1,.045.421l-.036-.044c.56.122.541.2-.018.09l-.037-.007a1.974,1.974,0,0,1,.046-.458h0Z" transform="translate(-1410.61 -705.707)" fill="#081815" stroke="#081815" stroke-width="0.2"/>
      <path id="Path_4913" data-name="Path 4913" d="M528,1790.524a6,6,0,0,1-2.059-.052l.025-.044a.759.759,0,0,1,0,1.135l-.01-.049a3.07,3.07,0,0,0,1.008.251,2.576,2.576,0,0,0,1.027-.144l-.007.032a.8.8,0,0,1,.013-1.129h0Zm0,0a.792.792,0,0,0,.013,1.1l.021.021-.028.011a2.725,2.725,0,0,1-2.071-.087l-.042-.017a.71.71,0,0,0,.034-1.088l-.061-.065a6.441,6.441,0,0,0,2.134.124h0Z" transform="translate(-487.379 -1737.063)" fill="#081815" stroke="#081815" stroke-width="0.2"/>
      <path id="Path_4914" data-name="Path 4914" d="M537.434,1840.691a.649.649,0,0,1-.456.8v-.048a2.007,2.007,0,0,0,1.512,0l0,.045c-.259-.187-.562-.446-.547-.8a.665.665,0,0,0,.2.439,2.011,2.011,0,0,0,.417.34,1.974,1.974,0,0,1-1.594.018l-.06-.025a.658.658,0,0,0,.535-.774h0Z" transform="translate(-498.067 -1785.797)" fill="#081815" stroke="#081815" stroke-width="0.2"/>
      <path id="Path_4915" data-name="Path 4915" d="M816.04,1353.643c7.676-.2,20.27-.68,27.821-.77v-.687c.29.126-13.935.148-13.87.19-3.463.039-10.452.1-13.917.128,7.764-.121,19.979-.263,27.832-.363h.046v.776c-7.914.207-20.085.543-27.912.726h0Z" transform="translate(-768.564 -1312.374)" fill="#081815" stroke="#081815" stroke-width="0.2"/>
      <path id="Path_4916" data-name="Path 4916" d="M539.529,1363.881c-2.461.147-6.333.335-8.823.463l.041-.044v1.073l-.045-.044,4.4-.162c1.094-.043,3.3-.116,4.4-.147-1.1.058-3.3.161-4.395.206l-4.395.191-.047,0v-1.161c2.52-.109,6.377-.289,8.869-.377h0Z" transform="translate(-492.02 -1323.75)" fill="#081815" stroke="#081815" stroke-width="0.2"/>
      <path id="Path_4917" data-name="Path 4917" d="M816.3,1363.881a5.225,5.225,0,0,1,.011,1.138,5.225,5.225,0,0,1-.011-1.138Z" transform="translate(-768.794 -1323.75)" fill="#081815" stroke="#081815" stroke-width="0.2"/>
      <path id="Path_4918" data-name="Path 4918" d="M551.836,1415.788l.019,1.3c0,.007,0,.009,0,.013l-.181.208v-.031l.457.523a.027.027,0,0,1,.007.018c.043,3.2.056,6.407.021,9.611-.07-3.2-.089-6.407-.08-9.611l.008.018-.448-.53-.013-.016.013-.015.187-.2c-.015.065.02-1.3.015-1.288Z" transform="translate(-512.332 -1374.05)" fill="#081815" stroke="#081815" stroke-width="0.2"/>
      <path id="Path_4919" data-name="Path 4919" d="M582.529,1445.366c.087-3.649.231-9.149.343-12.844l.032.05c-2.57-1.049-5.45-.607-8.052.111l-3.081-.009a9.171,9.171,0,0,0-3.432-.55,12.7,12.7,0,0,0-3.427.584l.029.182.032.513s-.04-.513-.04-.512l-.032-.182a10.352,10.352,0,0,1,6.884-.114c-.076-.01,3.086-.006,3.068-.011,2.549-.737,5.557-1.2,8.126-.1-.141,3.723-.29,9.2-.45,12.877h0Z" transform="translate(-525.2 -1389.596)" fill="#081815" stroke="#081815" stroke-width="0.2"/>
      <path id="Path_4920" data-name="Path 4920" d="M567.27,1484.03l1.276.05h.021c.02.763.044,1.524.058,2.287.048,2.265.081,4.531.073,6.8-.083-2.265-.126-4.53-.155-6.794-.012-.755-.013-1.511-.02-2.266l.021.022-1.273-.094h0Z" transform="translate(-527.497 -1440.179)" fill="#081815" stroke="#081815" stroke-width="0.2"/>
      <path id="Path_4921" data-name="Path 4921" d="M552.64,1459.478c.671.083,1.454.044,2.151.071l-.022.011.119-.177.015.04c-.087-.026-.262-.077-.349-.1,1.589-.01,3.311,0,4.906.026-1.532.027-3.194.035-4.719.027l.007-.054.2.061c-.01.015-.126.187-.141.207s0,.012-.022.011a21.1,21.1,0,0,1-2.148-.124h0v0Z" transform="translate(-513.32 -1416.232)" fill="#081815" stroke="#081815" stroke-width="0.2"/>
      <path id="Path_4922" data-name="Path 4922" d="M565.09,1478.638a7.491,7.491,0,0,1,1.367.047,7.516,7.516,0,0,1-1.367-.047Z" transform="translate(-525.384 -1434.942)" fill="#081815" stroke="#081815" stroke-width="0.2"/>
      <path id="Path_4923" data-name="Path 4923" d="M782.67,1461.238a31.121,31.121,0,0,1,3.244,0,26.341,26.341,0,0,1-3.244,0Z" transform="translate(-736.227 -1418.051)" fill="#081815" stroke="#081815" stroke-width="0.2"/>
      <path id="Path_4924" data-name="Path 4924" d="M788.261,1465.41a1.307,1.307,0,0,1,.114.176l-.012-.007a10.459,10.459,0,0,1,1.477-.067c.371.02.874.024,1.2.071.05-.057.1-.116.153-.173-.044.066-.089.131-.135.2h-.007c-.529.011-1.083,0-1.611-.019-.342.013-.719.021-1.073.017h-.009l0-.007a1.882,1.882,0,0,0-.091-.187h0Z" transform="translate(-741.644 -1422.136)" fill="#081815" stroke="#081815" stroke-width="0.2"/>
      <path id="Path_4925" data-name="Path 4925" d="M801.177,1472.749c-.1.094-.207.185-.31.278l-.027-.034.316-.271.022.061c-.523.015-1.1.011-1.628,0l-.542-.017.013-.037c.093.092.187.182.278.277-.119-.091-.232-.187-.349-.279h.057c.5-.02,1.126-.031,1.628-.023.213,0,.429,0,.642.012l-.408.308-.027-.034c.113-.081.223-.164.338-.244h0Z" transform="translate(-752.003 -1429.206)" fill="#081815" stroke="#081815" stroke-width="0.2"/>
      <path id="Path_4926" data-name="Path 4926" d="M805.4,1482.619a3.849,3.849,0,0,1,1.814,0c-.61-.022-1.2-.015-1.814,0Z" transform="translate(-758.253 -1438.707)" fill="#081815" stroke="#081815" stroke-width="0.2"/>
      <path id="Path_4927" data-name="Path 4927" d="M805.276,1498.555c-.023-2.942.016-6.243.113-9.184.024,2.942-.016,6.243-.113,9.184Z" transform="translate(-758.127 -1445.355)" fill="#081815" stroke="#081815" stroke-width="0.2"/>
      <path id="Path_4928" data-name="Path 4928" d="M859.891,1489.41c.1,3.018.176,6.4.2,9.421-.1-3.018-.176-6.4-.2-9.421Z" transform="translate(-811.057 -1445.393)" fill="#081815" stroke="#081815" stroke-width="0.2"/>
      <path id="Path_4929" data-name="Path 4929" d="M867.234,1457.031c.508-.026,1.015-.038,1.523-.041,0,.039,0,.191,0,.231-.168.181-.337.362-.509.54h-.017c-.29.016-.7.04-.986.048-.269-.025-.539-.056-.807-.091a8.145,8.145,0,0,0,1.3-.009l.492-.034-.029.013c.159-.174.323-.343.486-.513l-.011.029v-.174l.043.042c-.494,0-.988-.016-1.483-.042h0Z" transform="translate(-817.404 -1413.977)" fill="#081815" stroke="#081815" stroke-width="0.2"/>
      <path id="Path_4930" data-name="Path 4930" d="M923.114,1486.728c-.065-2.159-.132-5.111-.18-7.27-.022-.822-.029-1.646-.064-2.466.751-.026,1.5-.052,2.251-.072h.044v.043c.018,2.845.061,7.23.059,10.044-.026-1.254-.065-3.768-.08-5.02l-.065-5.021.045.042c-.736.027-1.473.048-2.209.068l.04-.044c.028.809.032,1.616.049,2.425.038,2.16.088,5.114.109,7.273h0Z" transform="translate(-872.086 -1433.289)" fill="#081815" stroke="#081815" stroke-width="0.2"/>
      <path id="Path_4931" data-name="Path 4931" d="M800.409,1458.331c.04,2.5.045,5.275.043,7.787l-.011,2.6v.036l-.036,0-1.463-.131-1.462-.138,1.465.1,1.466.106-.036.032-.011-2.6c0-2.516,0-5.286.043-7.787h0Z" transform="translate(-750.579 -1415.276)" fill="#081815" stroke="#081815" stroke-width="0.2"/>
      <path id="Path_4932" data-name="Path 4932" d="M1188.824,1424.418c-.108-3.576-.217-9.2-.3-12.817a10.015,10.015,0,0,1,3.035-.911,9.179,9.179,0,0,1,3.123.327c-.009,0,1.014.371.981.362l.81.111-.022.006a6.731,6.731,0,0,1,6.3-.685,6.793,6.793,0,0,0-6.261.733c-.011.009-.01.007-.022.005l-.811-.108c-.006,0-.989-.36-1-.361a9.155,9.155,0,0,0-3.091-.31,10.21,10.21,0,0,0-2.981.9l.026-.04c.072,3.617.167,9.211.216,12.789h0Z" transform="translate(-1129.511 -1368.778)" fill="#081815" stroke="#081815" stroke-width="0.2"/>
      <path id="Path_4933" data-name="Path 4933" d="M939.931,1454.27c1.136-.034,3.418-.1,4.553-.13h.04v2.544c-.01,2.329-.019,5.2-.056,7.514,0,0-.246.558-.247.562s.187.172.187.172l-.192-.17h0v0s.239-.577.233-.559c-.016-1.446-.017-3.542-.018-5.01,0-1.247.009-3.762.016-5.01l.04.039c-1.135.021-3.42.042-4.554.052h0Z" transform="translate(-888.619 -1411.215)" fill="#081815" stroke="#081815" stroke-width="0.2"/>
      <path id="Path_4934" data-name="Path 4934" d="M623.53,1480.173c1.343-.006,4.043-.014,5.387-.01h.039v.039l.006,3.48-.006,3.481v.038h-.038c-1.342.048-4.045.135-5.388.172,1.343-.068,4.042-.191,5.384-.249l-.038.039c-.006-1.735-.006-5.226,0-6.961l.039.039c-1.342-.01-4.045-.047-5.385-.068h0Z" transform="translate(-582.014 -1436.431)" fill="#081815" stroke="#081815" stroke-width="0.2"/>
      <path id="Path_4935" data-name="Path 4935" d="M706.28,1510.194a8.252,8.252,0,0,1,.348-.779l0,.045c-.093-.142-.182-.285-.268-.432s-.169-.294-.242-.448c.109.131.207.269.306.408s.2.295.3.446a8.421,8.421,0,0,1-.439.76h0Z" transform="translate(-662.048 -1463.969)" fill="#081815" stroke="#081815" stroke-width="0.2"/>
      <path id="Path_4936" data-name="Path 4936" d="M709.05,1579.321a7.051,7.051,0,0,1,.354-.814v.039a6.939,6.939,0,0,1-.31-.765,7.354,7.354,0,0,1,.4.745,7.245,7.245,0,0,1-.446.793h0Z" transform="translate(-664.887 -1531.028)" fill="#081815" stroke="#081815" stroke-width="0.2"/>
      <path id="Path_4937" data-name="Path 4937" d="M709.662,1650.136a6.037,6.037,0,0,1-.452-.626l.077-.049a5.765,5.765,0,0,1,.373.676h0Zm0,0a5.8,5.8,0,0,1-.452-.626l.077-.049a5.765,5.765,0,0,1,.373.676h0Z" transform="translate(-665.042 -1600.488)" fill="#081815" stroke="#081815" stroke-width="0.2"/>
      <path id="Path_4938" data-name="Path 4938" d="M710.47,1671.91a1.52,1.52,0,0,1,.412-.629,1.52,1.52,0,0,1-.412.629Z" transform="translate(-666.263 -1621.633)" fill="#081815" stroke="#081815" stroke-width="0.2"/>
      <path id="Path_4939" data-name="Path 4939" d="M640.89,1508.188a8.476,8.476,0,0,1,.348-.8l0,.044c-.093-.147-.182-.3-.268-.447s-.169-.3-.242-.462c.109.137.208.279.306.422s.2.3.294.46a8.634,8.634,0,0,1-.439.786h0v0Z" transform="translate(-598.682 -1461.973)" fill="#081815" stroke="#081815" stroke-width="0.2"/>
      <path id="Path_4940" data-name="Path 4940" d="M643.621,1579.691a7.31,7.31,0,0,1,.354-.841v.039a7.355,7.355,0,0,1-.31-.789,7.478,7.478,0,0,1,.4.771,7.767,7.767,0,0,1-.445.822h0Z" transform="translate(-601.483 -1531.337)" fill="#081815" stroke="#081815" stroke-width="0.2"/>
      <path id="Path_4941" data-name="Path 4941" d="M644.3,1652.968a5.9,5.9,0,0,1-.452-.65l.078-.047a6.044,6.044,0,0,1,.373.7h0Zm0,0a5.9,5.9,0,0,1-.452-.65l.078-.047a6.044,6.044,0,0,1,.373.7h0Z" transform="translate(-601.706 -1603.21)" fill="#081815" stroke="#081815" stroke-width="0.2"/>
      <path id="Path_4942" data-name="Path 4942" d="M645.08,1675.422a1.6,1.6,0,0,1,.412-.651,1.6,1.6,0,0,1-.412.651Z" transform="translate(-602.898 -1625.014)" fill="#081815" stroke="#081815" stroke-width="0.2"/>
      <path id="Path_4943" data-name="Path 4943" d="M768.522,1508c.121-.311.266-.611.416-.908l0,.045c-.091-.144-.181-.289-.266-.438s-.169-.3-.245-.452c.108.134.207.273.3.414s.2.3.3.449a10.056,10.056,0,0,1-.51.889h0Z" transform="translate(-722.428 -1461.711)" fill="#081815" stroke="#081815" stroke-width="0.2"/>
      <path id="Path_4944" data-name="Path 4944" d="M771.4,1579.592a7.3,7.3,0,0,1,.419-.749v.047a7.039,7.039,0,0,1-.4-.8,7.468,7.468,0,0,1,.489.777,7.356,7.356,0,0,1-.51.724Z" transform="translate(-725.307 -1531.328)" fill="#081815" stroke="#081815" stroke-width="0.2"/>
      <path id="Path_4945" data-name="Path 4945" d="M772.052,1649.435a6.037,6.037,0,0,1-.452-.636l.078-.049a5.747,5.747,0,0,1,.373.684Zm0,0a5.692,5.692,0,0,1-.452-.636l.078-.049a5.747,5.747,0,0,1,.373.684Z" transform="translate(-725.501 -1599.8)" fill="#081815" stroke="#081815" stroke-width="0.2"/>
      <path id="Path_4946" data-name="Path 4946" d="M772.82,1671.526a1.553,1.553,0,0,1,.412-.636,1.553,1.553,0,0,1-.412.636Z" transform="translate(-726.683 -1621.253)" fill="#081815" stroke="#081815" stroke-width="0.2"/>
      <path id="Path_4947" data-name="Path 4947" d="M623.88,1502.707c-.045-1.915-.078-4.68-.1-6.623l.044.044h-.742l.045-.044v.292l-.006.011-.511.884,0-.046.643.9a.032.032,0,0,1,.008.023v.433c0,.015,0,.013-.01.025l-.649.826v-.04l.594.935,0,.007v.009l-.013.414v.006l0,.005-.475.795v-.016s.513.827.513.828,0,.316,0,.317-.005-.323,0-.313l-.533-.814c-.006-.009-.005-.007,0-.016l.458-.8,0,.012.007-.415.005.016-.6-.928-.013-.021.016-.02.642-.831-.009.025v-.433l.006.023-.646-.9-.016-.022.013-.025.507-.886-.006.023v-.326h.787l.044,0v.044c.01,1.954.027,4.7.012,6.624h0l0,0Z" transform="translate(-581.036 -1451.817)" fill="#081815" stroke="#081815" stroke-width="0.2"/>
      <path id="Path_4948" data-name="Path 4948" d="M680.194,1502.443c-.031-1.869-.038-4.569-.044-6.466v-.044h.8l.045,0v.4l-.006.011-.51.854,0-.048.643.874.009.011v.447l-.01.011-.649.8,0-.041.593.9,0,.007v.009l-.013.4v.007l-.479.774v-.016s.513.8.513.8,0,.3,0,.306,0-.312,0-.3l-.533-.787c-.008-.01,0-.008,0-.016l.458-.778,0,.013.008-.4c.037.078-.608-.9-.6-.88l-.015-.021.016-.021.64-.8-.009.025v-.419l.008.025-.646-.872-.017-.023.014-.025.507-.856-.006.023v-.345l.045.045h-.759l.044-.045c0,1.907-.015,4.587-.044,6.466h0v0Z" transform="translate(-636.882 -1451.711)" fill="#081815" stroke="#081815" stroke-width="0.2"/>
      <path id="Path_4949" data-name="Path 4949" d="M708.756,1503.444c-.059-2.182-.056-4.363-.018-6.545l.018.018-.736-.018.736-.018h.018v.018c.038,2.182.04,4.364-.018,6.545Z" transform="translate(-663.889 -1452.632)" fill="#081815" stroke="#081815" stroke-width="0.2"/>
      <path id="Path_4950" data-name="Path 4950" d="M745.594,1502.365c-.031-1.869-.038-4.568-.044-6.466v-.044h.044l.665-.005h.045v.334l-.006.011-.511.864v-.046l.6.887.007.011v.429a.034.034,0,0,1-.009.023l-.6.813v-.044l.608.746.007.009v.011l-.031.575v.006s-.475.778-.479.782v-.016s.513.809.513.81,0,.308,0,.309,0-.316,0-.306l-.533-.8c-.007-.01-.005-.007,0-.016l.458-.787,0,.012.022-.575.006.02-.62-.737-.018-.021.017-.023.6-.819-.007.023v-.416l.006.023-.6-.885-.016-.022.013-.023.507-.866-.006.023v-.276l.046.045h-.665l.044-.043c0,1.907-.015,4.587-.044,6.466h0v0Z" transform="translate(-700.257 -1451.633)" fill="#081815" stroke="#081815" stroke-width="0.2"/>
      <path id="Path_4951" data-name="Path 4951" d="M560.849,1479.668l5.311-.387h.021v.018l.006,2.054v.022h-.022l-5.313.191c-.086.036-.132-9.38-.16-9.391l-.2-.458c.038.006-1.413-.043-1.407-.045l-.313-.053.313.05,1.415.035h0l0,.005.206.455s.169,9.369.168,9.37l-.031-.029c-.017,0,5.416-.2,5.292-.153V1479.3c.126.055-5.319.347-5.291.367h0v0Z" transform="translate(-519.26 -1428.154)" fill="#081815" stroke="#081815" stroke-width="0.2"/>
      <path id="Path_4952" data-name="Path 4952" d="M622.871,1495.988a.536.536,0,0,1-.441,0,.536.536,0,0,1,.441,0Z" transform="translate(-580.949 -1451.721)" fill="#081815" stroke="#081815" stroke-width="0.2"/>
      <path id="Path_4953" data-name="Path 4953" d="M614.792,1467.621a.418.418,0,0,1-.232.217.418.418,0,0,1,.232-.217Z" transform="translate(-573.323 -1424.278)" fill="#081815" stroke="#081815" stroke-width="0.2"/>
      <path id="Path_4954" data-name="Path 4954" d="M772.8,1496.828l.66-.017h.017v.017q.048,2.374.016,4.748c-.006.527-.016,1.055-.033,1.583-.017-.528-.026-1.055-.033-1.583q-.029-2.374.016-4.748l.017.017-.66-.017h0Z" transform="translate(-726.663 -1452.564)" fill="#081815" stroke="#081815" stroke-width="0.2"/>
      <path id="Path_4955" data-name="Path 4955" d="M-598.558,209.42a5.95,5.95,0,0,0,1.194.258,4.131,4.131,0,0,1,1.2.239c.4.1.816.039,1.211.168.2.055.389.127.589.165a6.584,6.584,0,0,1,1.209.177,3.994,3.994,0,0,0,1.2.2c.409.039.78.249,1.19.277.2.02.408.022.611.055a7.717,7.717,0,0,0,1.189.272,3.88,3.88,0,0,1,1.2.244c.388.118.81.056,1.209.179a3.891,3.891,0,0,0,1.19.244,7.822,7.822,0,0,1,1.191.28,4.924,4.924,0,0,1,1.208.2,4.551,4.551,0,0,0,1.2.206,11.119,11.119,0,0,0,1.186.288,3.848,3.848,0,0,1,1.2.246c.384.132.8.075,1.207.19a4.078,4.078,0,0,0,1.185.262,6.08,6.08,0,0,1,1.191.288,5.85,5.85,0,0,1,1.208.206,4.117,4.117,0,0,0,1.192.224c.416.056.78.273,1.184.3.2.022.407.029.611.07a6.654,6.654,0,0,0,1.181.3,4.031,4.031,0,0,1,1.2.273c.39.118.815.068,1.206.2.2.061.385.138.581.184a7.235,7.235,0,0,1,1.207.213,3.9,3.9,0,0,0,1.187.242c.42.049.782.273,1.181.313.2.027.405.034.611.073a8.505,8.505,0,0,0,1.178.31,3.907,3.907,0,0,1,1.2.277c.388.132.81.086,1.2.215.2.061.385.141.579.194a9.388,9.388,0,0,1,1.2.224,3.8,3.8,0,0,0,1.181.264c.42.044.783.272,1.179.327.2.032.4.041.608.078.406.073.763.291,1.175.327a3.856,3.856,0,0,1,1.194.283c.385.146.806.107,1.2.23.2.06.386.143.579.2.381.119.809.08,1.2.234a3.763,3.763,0,0,0,1.178.285c.411.038.779.263,1.176.338a4.3,4.3,0,0,1,1.2.264,5.371,5.371,0,0,0,1.19.251,6.943,6.943,0,0,0,1.172.337,4,4,0,0,1,1.185.313c.38.133.806.1,1.2.245a3.836,3.836,0,0,0,1.174.306,8.916,8.916,0,0,1,1.174.349,4.69,4.69,0,0,1,1.195.272,4.773,4.773,0,0,0,1.186.271,8.875,8.875,0,0,0,1.168.353,3.9,3.9,0,0,1,1.182.318c.378.148.8.114,1.195.258.195.067.38.154.573.214a9.725,9.725,0,0,1,1.194.267,3.8,3.8,0,0,0,1.175.308c.409.058.764.3,1.166.37a4.018,4.018,0,0,1,1.184.3,6.522,6.522,0,0,0,1.187.279c.2.056.383.145.573.217.378.163.8.136,1.19.276a4.176,4.176,0,0,0,1.168.349,5.88,5.88,0,0,1,1.164.371,5.83,5.83,0,0,0-1.166-.365,4.164,4.164,0,0,1-1.172-.344c-.386-.137-.81-.108-1.192-.269-.191-.072-.377-.159-.573-.213a6.379,6.379,0,0,1-1.191-.276,3.972,3.972,0,0,0-1.181-.3c-.4-.072-.759-.308-1.166-.365a3.858,3.858,0,0,1-1.185-.306,10.248,10.248,0,0,0-1.192-.261c-.2-.061-.383-.148-.575-.213-.38-.141-.806-.107-1.195-.257a3.807,3.807,0,0,0-1.173-.315,8.773,8.773,0,0,1-1.172-.351,4.85,4.85,0,0,1-1.195-.271,4.622,4.622,0,0,0-1.186-.267,9.255,9.255,0,0,0-1.169-.346,3.9,3.9,0,0,1-1.186-.306c-.378-.146-.8-.107-1.2-.244a3.915,3.915,0,0,0-1.174-.308,6.79,6.79,0,0,1-1.178-.335,5.431,5.431,0,0,1-1.2-.252,4.268,4.268,0,0,0-1.186-.259c-.413-.076-.769-.3-1.173-.335a3.845,3.845,0,0,1-1.192-.286c-.377-.149-.8-.108-1.2-.231-.2-.06-.387-.142-.579-.2-.388-.12-.817-.082-1.2-.229a3.735,3.735,0,0,0-1.179-.278,12.052,12.052,0,0,1-1.18-.326c-.2-.036-.4-.045-.607-.077-.417-.06-.776-.286-1.178-.324a3.906,3.906,0,0,1-1.2-.266,10.29,10.29,0,0,0-1.2-.22,4.572,4.572,0,0,0-1.177-.3,4.872,4.872,0,0,1-1.19-.3,8.078,8.078,0,0,1-1.206-.22,3.813,3.813,0,0,0-1.185-.251c-.42-.045-.783-.271-1.181-.315a4,4,0,0,1-1.2-.249,7.437,7.437,0,0,0-1.2-.213c-.2-.049-.393-.126-.586-.186-.388-.133-.809-.083-1.2-.2a3.981,3.981,0,0,0-1.181-.272,6.6,6.6,0,0,1-1.189-.3c-.2-.039-.4-.046-.6-.07-.42-.031-.788-.251-1.185-.3a4.214,4.214,0,0,1-1.2-.229,5.808,5.808,0,0,0-1.2-.206,6.017,6.017,0,0,1-.589-.177c-.388-.14-.807-.089-1.2-.195-.2-.053-.39-.128-.585-.182-.385-.113-.81-.056-1.208-.192-.2-.059-.387-.133-.584-.176a6.809,6.809,0,0,1-1.208-.2,3.963,3.963,0,0,0-1.194-.222c-.41-.043-.777-.256-1.187-.29a3.884,3.884,0,0,1-1.2-.228,8.6,8.6,0,0,0-1.206-.186c-.2-.046-.393-.121-.588-.176-.387-.121-.809-.06-1.208-.18a3.855,3.855,0,0,0-1.19-.244,7.655,7.655,0,0,1-1.192-.278c-.2-.033-.4-.037-.608-.058-.411-.029-.782-.24-1.19-.281a4.02,4.02,0,0,1-1.2-.211,6.665,6.665,0,0,0-1.206-.182c-.2-.04-.394-.113-.589-.169-.39-.128-.812-.066-1.209-.172a4.116,4.116,0,0,0-1.195-.245,5.967,5.967,0,0,1-1.192-.264h0Z" transform="translate(602.236 -205.035)" fill="#081815" stroke="#081815" stroke-width="0.2"/>
      <path id="Path_4956" data-name="Path 4956" d="M553.471,1218.1s.476-.161.481-.16l1.555.116.038,0v.039c0,.037,0,.2.006.233l-.05-.005s-1.586-.155-1.567-.157l-.459.109h-.005v0l0-.175h0Zm0,0,0,.175-.005,0,.454-.129,1.58.091-.049.045,0-.181.038.042-1.549-.18c.02,0-.482.141-.479.139h0Z" transform="translate(-514.123 -1182.328)" fill="#081815" stroke="#081815" stroke-width="0.2"/>
      <path id="Path_4957" data-name="Path 4957" d="M559.828,1229.6c-.419-.013-.894-.032-1.284-.054l-.331.064.026-.036c.012,1.466.013,2.987-.037,4.449-.05-1.459-.05-2.983-.037-4.449v-.03l.026,0c.006,0,.34-.056.348-.056.431.034.86.072,1.29.116h0Z" transform="translate(-518.666 -1193.511)" fill="#081815" stroke="#081815" stroke-width="0.2"/>
      <path id="Path_4958" data-name="Path 4958" d="M570.127,1235.58c.061,1.443.062,2.89,0,4.333-.062-1.443-.061-2.89,0-4.333Z" transform="translate(-530.22 -1199.422)" fill="#081815" stroke="#081815" stroke-width="0.2"/>
      <path id="Path_4959" data-name="Path 4959" d="M586.17,1208.336c2.164-.409,4.357-.74,6.546-.986-2.165.409-4.357.739-6.546.986Z" transform="translate(-545.811 -1172.067)" fill="#081815" stroke="#081815" stroke-width="0.2"/>
      <path id="Path_4960" data-name="Path 4960" d="M591.077,1239.18q.092,2.1,0,4.192-.094-2.095,0-4.192Z" transform="translate(-550.521 -1202.91)" fill="#081815" stroke="#081815" stroke-width="0.2"/>
      <path id="Path_4961" data-name="Path 4961" d="M1106.26,1205.707c-.05-1.538-.1-3.15-.13-4.687v-.038l.037-.006.831-.146.053-.01c.014,1.628.026,3.255.01,4.883-.024-.8-.047-1.61-.061-2.414s-.026-1.61-.038-2.414l.053.044-.833.145.037-.044c.024,1.536.053,3.15.041,4.688h0v0Z" transform="translate(-1049.673 -1165.738)" fill="#081815" stroke="#081815" stroke-width="0.2"/>
      <path id="Path_4962" data-name="Path 4962" d="M1139.036,1207.377c-.088-1.586-.093-3.176-.083-4.764l.027.028c-.343-.023-.687-.051-1.03-.081q.529.007,1.058.026v.027c.045,1.563.048,3.2.028,4.764Z" transform="translate(-1080.507 -1167.425)" fill="#081815" stroke="#081815" stroke-width="0.2"/>
      <path id="Path_4963" data-name="Path 4963" d="M1097.112,1187.558c.34-.084.692-.175,1.048-.258.263.012.526.021.79.036l.784.043.042,0v.042c0,.035,0,.239,0,.269-.525-.034-1.123-.061-1.613-.1-.35.073-.7.146-1.051.213l-.011,0v-.011l.009-.237h0l0,0Zm0,0,.009.238c.283-.108.7-.179,1.031-.27.528.015,1.057.049,1.584.072l-.048.045v-.221l.043.044-.785-.052c-.249-.016-.558-.04-.776-.059-.345.07-.7.132-1.056.2h0Z" transform="translate(-1040.922 -1152.636)" fill="#081815" stroke="#081815" stroke-width="0.2"/>
      <path id="Path_4964" data-name="Path 4964" d="M1097.191,1199.1c.055.014.168.039.195.05.316-.074.634-.137.955-.193a10.5,10.5,0,0,1,1.272.115l.009-.1.009.1a11.03,11.03,0,0,1-1.275-.026c-.321.053-.641.1-.965.133-.067-.021-.133-.054-.2-.081h0Z" transform="translate(-1041.01 -1163.937)" fill="#081815" stroke="#081815" stroke-width="0.2"/>
      <path id="Path_4965" data-name="Path 4965" d="M798.067,1193.086c-.051-1.662-.106-3.4-.137-5.065l.038-.006.892-.156.053-.009v.053c.017,1.726.028,3.454.013,5.179-.024-.863-.048-1.726-.063-2.589s-.027-1.726-.04-2.589l.052.044-.892.156.037-.044c.026,1.648.058,3.379.048,5.028h0Z" transform="translate(-751.015 -1153.169)" fill="#081815" stroke="#081815" stroke-width="0.2"/>
      <path id="Path_4966" data-name="Path 4966" d="M833.1,1194.717c-.091-1.7-.1-3.406-.088-5.109l.027.028c-.368-.024-.736-.054-1.1-.086.378.006.755.016,1.132.031v.027c.046,1.677.049,3.427.033,5.109Z" transform="translate(-783.962 -1154.818)" fill="#081815" stroke="#081815" stroke-width="0.2"/>
      <path id="Path_4967" data-name="Path 4967" d="M788.25,1173.615c.366-.091.742-.186,1.124-.274.283.013.564.022.847.039l.842.045.041,0v.042c0,.036,0,.256,0,.285-.563-.037-1.2-.065-1.727-.109q-.564.119-1.127.23l-.011,0v-.011l.009-.255h0v0Zm0,0,.009.254c.308-.113.752-.19,1.107-.286.566.017,1.132.053,1.7.078l-.048.045v-.236l.043.044-.841-.055c-.268-.017-.6-.041-.834-.062-.371.076-.747.143-1.132.218h0Z" transform="translate(-741.625 -1139.11)" fill="#081815" stroke="#081815" stroke-width="0.2"/>
      <path id="Path_4968" data-name="Path 4968" d="M788.212,1186.029c.06.016.176.042.208.055.339-.078.681-.144,1.023-.2a11.932,11.932,0,0,1,1.364.121l.009-.112.009.112a12.563,12.563,0,0,1-1.366-.032c-.344.056-.688.107-1.034.146-.072-.022-.143-.056-.214-.086h0Z" transform="translate(-741.596 -1151.261)" fill="#081815" stroke="#081815" stroke-width="0.2"/>
      <path id="Path_4969" data-name="Path 4969" d="M1008.713,1709.127c.28-.3.541-.6.817-.9l-.009.022c0-.226-.007-.454-.009-.681l.012.03c-.28-.266-.566-.528-.842-.8l.073-.032c0,.672-.029,1.67-.044,2.354h0Zm0,0c-.016-.742-.045-1.72-.044-2.456l.074.07c.283.263.558.535.837.8.013.014.013.009.012.03,0,.231,0,.463-.009.694-.286.29-.589.574-.872.859h0Z" transform="translate(-955.229 -1655.926)" fill="#081815" stroke="#081815" stroke-width="0.2"/>
      <path id="Path_4970" data-name="Path 4970" d="M1015.417,1757.78c.244.241.473.5.7.756a13.3,13.3,0,0,1-1.392.118,12.9,12.9,0,0,1,1.3-.195l-.029.072c-.2-.244-.394-.492-.574-.752h0Z" transform="translate(-961.093 -1705.453)" fill="#081815" stroke="#081815" stroke-width="0.2"/>
      <path id="Path_4971" data-name="Path 4971" d="M936.891,1510.031l-1.432.142h-.012v-.011l-.132-5.825c0-.018.018-.032.034-.034.214-.028.548-.031.768-.04l.775-.022h.027c-.008,1.708-.006,4.106-.027,5.792-.016-1.665-.023-4.075-.027-5.765l.027.027c-.4.017-1.053.029-1.449.06-.02,0-.06.005-.08.009h0c.005,0,.011-.007.012-.013l0-.013c-.01,0,.118,5.878.082,5.813l1.435-.119h0Z" transform="translate(-884.145 -1459.763)" fill="#081815" stroke="#081815" stroke-width="0.2"/>
      <path id="Path_4972" data-name="Path 4972" d="M1009.286,1509.189l1.534-.13c-.032.078.042-5.685.032-5.667l.032.031-1.6.055.026-.026c0,1.43-.017,4.309-.026,5.739h0Zm0,0c-.01-1.43-.023-4.308-.026-5.739v-.026h.026l1.6-.064h.032c0,.036-.081,5.679-.079,5.722h-.011l-1.535.105h0Z" transform="translate(-955.802 -1458.911)" fill="#081815" stroke="#081815" stroke-width="0.2"/>
      <path id="Path_4973" data-name="Path 4973" d="M1002.62,1475.276c.714-.032,1.427-.07,2.142-.1h.029v.028c.009,3.278-.013,6.555-.086,9.834-.027-2.458-.021-4.917,0-7.376q.009-1.228.028-2.458l.029.028c-.715.02-1.43.027-2.143.04h0Z" transform="translate(-949.367 -1431.603)" fill="#081815" stroke="#081815" stroke-width="0.2"/>
      <path id="Path_4974" data-name="Path 4974" d="M1010.09,1700.63c.5-.082,1.007-.131,1.514-.17a1.855,1.855,0,0,1-.175.337c-.158.258-.322.512-.5.759.175-.357.379-.7.565-1.055l.048.055c-.482.042-.966.073-1.452.075h0Z" transform="translate(-956.606 -1649.908)" fill="#081815" stroke="#081815" stroke-width="0.2"/>
      <path id="Path_4975" data-name="Path 4975" d="M940.153,1717.946c.28-.3.541-.6.816-.9l-.009.022c0-.226-.007-.454-.009-.681l.012.029c-.28-.266-.566-.527-.842-.8l.073-.032c0,.672-.029,1.67-.044,2.354h0Zm0,0c-.016-.742-.045-1.72-.044-2.456l.075.07c.283.263.558.535.837.8.013.013.013.009.012.029,0,.231,0,.463-.009.694-.286.29-.589.574-.872.859h0Z" transform="translate(-888.791 -1664.473)" fill="#081815" stroke="#081815" stroke-width="0.2"/>
      <path id="Path_4976" data-name="Path 4976" d="M946.857,1766.561c.244.241.472.5.7.756a13.332,13.332,0,0,1-1.392.118,12.9,12.9,0,0,1,1.3-.195l-.029.072c-.2-.244-.394-.492-.574-.752h0Z" transform="translate(-894.656 -1713.962)" fill="#081815" stroke="#081815" stroke-width="0.2"/>
      <path id="Path_4977" data-name="Path 4977" d="M941.531,1709.4c.5-.082,1.007-.131,1.514-.17a1.829,1.829,0,0,1-.175.336c-.158.258-.322.512-.5.759.175-.357.378-.7.564-1.055l.048.055c-.482.042-.966.072-1.452.074h0Z" transform="translate(-890.169 -1658.407)" fill="#081815" stroke="#081815" stroke-width="0.2"/>
      <path id="Path_4978" data-name="Path 4978" d="M934.445,1797.051q-2.02.349-4.064.515,2.02-.351,4.064-.515Z" transform="translate(-879.365 -1743.508)" fill="#081815" stroke="#081815" stroke-width="0.2"/>
      <path id="Path_4979" data-name="Path 4979" d="M897.606,1794.05c-.607.088-1.495.194-2.114.268-.706.077-1.4.219-2.108.3-.455-.28-.9-.616-1.344-.922.419.271,1,.614,1.333.86a37.166,37.166,0,0,1,4.232-.508h0Z" transform="translate(-842.211 -1740.261)" fill="#081815" stroke="#081815" stroke-width="0.2"/>
      <path id="Path_4980" data-name="Path 4980" d="M986.585,1712.8a11.807,11.807,0,0,1,.014,2.1,11.813,11.813,0,0,1-.014-2.1Z" transform="translate(-933.789 -1661.866)" fill="#081815" stroke="#081815" stroke-width="0.2"/>
      <path id="Path_4981" data-name="Path 4981" d="M1055.392,1716.281a10.3,10.3,0,0,1,0,1.965,10.338,10.338,0,0,1,0-1.965Z" transform="translate(-1000.46 -1665.239)" fill="#081815" stroke="#081815" stroke-width="0.2"/>
      <path id="Path_4982" data-name="Path 4982" d="M1010.809,1567.026c.026.763-.832,1.318-1.377.645-.444-.531-.169-1.584.6-1.592a.89.89,0,0,1,.781.946Zm0,0a.862.862,0,0,0-.781-.916c-.993.055-.994,1.776,0,1.832a.862.862,0,0,0,.781-.916h0Z" transform="translate(-955.761 -1519.689)" fill="#081815" stroke="#081815" stroke-width="0.2"/>
      <path id="Path_4983" data-name="Path 4983" d="M1010.831,1504.35a3.376,3.376,0,0,0-1.169,4.43,3.665,3.665,0,0,0,1.108,1.25,3.5,3.5,0,0,1-1.15-1.228,3.314,3.314,0,0,1,1.211-4.452h0Z" transform="translate(-955.75 -1459.87)" fill="#081815" stroke="#081815" stroke-width="0.2"/>
      <path id="Path_4984" data-name="Path 4984" d="M1010.09,1506.251c1.356,1.147,2.147,2.84,1.118,4.483a5.367,5.367,0,0,1-1.118,1.256,5.853,5.853,0,0,0,1.077-1.279c1-1.637.213-3.274-1.077-4.459h0Z" transform="translate(-956.606 -1461.712)" fill="#081815" stroke="#081815" stroke-width="0.2"/>
      <path id="Path_4985" data-name="Path 4985" d="M939.734,1575.078a.748.748,0,0,1-1.287.569.863.863,0,0,1,0-1.14.747.747,0,0,1,1.287.569h0Zm0,0a.723.723,0,1,0-1.442,0,.723.723,0,1,0,1.442,0Z" transform="translate(-886.973 -1527.62)" fill="#081815" stroke="#081815" stroke-width="0.2"/>
      <path id="Path_4986" data-name="Path 4986" d="M939.744,1505.07a3.64,3.64,0,0,0-1.1,4.453,3.727,3.727,0,0,0,.982,1.322,3.641,3.641,0,0,1,.114-5.775Z" transform="translate(-886.998 -1460.568)" fill="#081815" stroke="#081815" stroke-width="0.2"/>
      <path id="Path_4987" data-name="Path 4987" d="M936.271,1507.323c1.326,1.15,2.123,2.885,1.175,4.533a5.026,5.026,0,0,1-1.086,1.292,5.437,5.437,0,0,0,1.044-1.314c.914-1.641.126-3.324-1.134-4.511h0Z" transform="translate(-885.072 -1462.749)" fill="#081815" stroke="#081815" stroke-width="0.2"/>
      <path id="Path_4988" data-name="Path 4988" d="M868.54,1207.351c2.536.014,5.088.112,7.619.29-2.538-.014-5.088-.112-7.619-.29Z" transform="translate(-819.439 -1172.067)" fill="#081815" stroke="#081815" stroke-width="0.2"/>
      <path id="Path_4989" data-name="Path 4989" d="M1172.31,1218.581c2.219,0,4.451.087,6.666.253-2.22,0-4.453-.087-6.666-.253Z" transform="translate(-1113.803 -1182.949)" fill="#081815" stroke="#081815" stroke-width="0.2"/>
      <path id="Path_4990" data-name="Path 4990" d="M1434.411,1226.4c2.093,0,4.2.077,6.286.239-2.094,0-4.2-.077-6.286-.239Z" transform="translate(-1367.789 -1190.524)" fill="#081815" stroke="#081815" stroke-width="0.2"/>
      <path id="Path_4991" data-name="Path 4991" d="M594.79,1353.115c2.054-.151,4.315-.273,6.374-.344-2.054.15-4.315.273-6.374.344Z" transform="translate(-554.165 -1312.984)" fill="#081815" stroke="#081815" stroke-width="0.2"/>
      <path id="Path_4992" data-name="Path 4992" d="M871.94,1351.96c2.381-.053,5-.066,7.381-.038-2.381.052-5,.065-7.381.038Z" transform="translate(-822.734 -1312.147)" fill="#081815" stroke="#081815" stroke-width="0.2"/>
      <path id="Path_4993" data-name="Path 4993" d="M1144.75,1466.549a2.272,2.272,0,0,1,1.421,0,12.688,12.688,0,0,0-1.421,0Z" transform="translate(-1087.096 -1423.129)" fill="#081815" stroke="#081815" stroke-width="0.2"/>
      <path id="Path_4994" data-name="Path 4994" d="M1137.658,1443.75l-.3.527-.007.013a3.866,3.866,0,0,0-.722-.054,3.762,3.762,0,0,0-.733.077c-.09-.159-.176-.321-.261-.481a3.636,3.636,0,0,1,2.031-.083h0Zm0,0a4.329,4.329,0,0,0-1.953.148l.023-.062c.076.136.149.27.222.408l-.048-.022a3.954,3.954,0,0,1,.719-.062,3.705,3.705,0,0,1,.715.083l-.024.011.345-.5h0Z" transform="translate(-1078.259 -1401.046)" fill="#081815" stroke="#081815" stroke-width="0.2"/>
      <path id="Path_4995" data-name="Path 4995" d="M1147.05,1449.095a4.3,4.3,0,0,1,.641-.135,4.58,4.58,0,0,1,.687.2,4.449,4.449,0,0,1-.7-.113,3.587,3.587,0,0,1-.629.044h0Z" transform="translate(-1089.325 -1406.195)" fill="#081815" stroke="#081815" stroke-width="0.2"/>
      <path id="Path_4996" data-name="Path 4996" d="M1363.1,1443.379l.012.444v.013c-.553.056-1.111.1-1.665.143-.306.023-.612.048-.918.065-.067-.012-.044-.113-.05-.156v-.208c0-.011.018-.468.016-.457l.042.006c.437.059,1.109.148,1.54.216-.433-.032-1.112-.1-1.549-.14l.044-.038-.008.412c0,.064-.005.241.008.3a.046.046,0,0,0-.015-.018.056.056,0,0,0-.019-.006h.013c.3-.026.6-.044.9-.062.548-.036,1.1-.067,1.647-.088l-.015.016.019-.444h0Z" transform="translate(-1296.147 -1400.637)" fill="#081815" stroke="#081815" stroke-width="0.2"/>
      <path id="Path_4997" data-name="Path 4997" d="M1368.931,1454.525a12.014,12.014,0,0,1,2.12-.03,11.933,11.933,0,0,1-2.12.03Z" transform="translate(-1304.336 -1411.527)" fill="#081815" stroke="#081815" stroke-width="0.2"/>
      <path id="Path_4998" data-name="Path 4998" d="M1382.75,1471.141c.06,3.536.06,7.5,0,11.04-.06-3.536-.06-7.5,0-11.04Z" transform="translate(-1317.684 -1427.689)" fill="#081815" stroke="#081815" stroke-width="0.2"/>
      <path id="Path_4999" data-name="Path 4999" d="M1437.808,1482.019c-.184-3.444-.325-7.311-.388-10.76.185,3.444.323,7.311.388,10.76Z" transform="translate(-1370.704 -1427.804)" fill="#081815" stroke="#081815" stroke-width="0.2"/>
      <path id="Path_5000" data-name="Path 5000" d="M1474.1,1446.056c.058,1.513.08,3.8.1,5.33l-.03-.031,1.271.083-.037.034c-.007-1.688-.013-4.056-.005-5.719l.025.037a2.159,2.159,0,0,0-1.01-.192,2.425,2.425,0,0,0-.983.291l-.224.191.011-.026c.029,1.456.073,4.388.09,5.843-.045-1.457-.124-4.385-.154-5.842v-.016l.011-.01.223-.192a2.268,2.268,0,0,1,2.069-.12l.024.01v.026c.012,1.655,0,4.04-.005,5.719v.038l-.037,0-1.269-.091-.028,0v-.028c-.018-1.544-.013-3.81-.039-5.331h0Z" transform="translate(-1405.329 -1402.865)" fill="#081815" stroke="#081815" stroke-width="0.2"/>
      <path id="Path_5001" data-name="Path 5001" d="M1482.121,1460.271c-.514.033-1.028.072-1.544.1l.025-.027.042,1.451c.018.724.048,2.178.058,2.9.009.484.016.967.018,1.451l-.035-.031c.5-.055,1.52-.156,2.025-.2-.52.071-1.53.207-2.052.271-.042-1.353-.072-3.028-.093-4.387l-.015-1.451v-.026h.026c.516-.022,1.031-.033,1.546-.05Z" transform="translate(-1412.499 -1417.155)" fill="#081815" stroke="#081815" stroke-width="0.2"/>
      <path id="Path_5002" data-name="Path 5002" d="M1461.126,1422.013c.038,2.072.076,5.333.093,7.428l-.049-.043,2.318-.317c.254-.035.522-.07.764-.109l-.029.04c0-1.239.013-4.421.025-5.619l.018-1.873.018,1.873c.011,1.185.021,4.392.025,5.619v.036l-.03.005c-.445.077-1.1.155-1.551.223l-1.546.206-.049.006v-.049c-.006-2.1-.022-5.348-.007-7.428h0v0Z" transform="translate(-1393.669 -1379.605)" fill="#081815" stroke="#081815" stroke-width="0.2"/>
      <path id="Path_5003" data-name="Path 5003" d="M1561.336,1412.325l-.046-.3h.092l-.046.3h0Zm0,0-.046-.3h.092l-.046.3h0Z" transform="translate(-1490.739 -1370.409)" fill="#081815" stroke="#081815" stroke-width="0.2"/>
      <path id="Path_5004" data-name="Path 5004" d="M1485.384,1634.194a1.122,1.122,0,0,1-.643.061,1.122,1.122,0,0,1,.643-.061Z" transform="translate(-1416.56 -1585.673)" fill="#081815" stroke="#081815" stroke-width="0.2"/>
      <path id="Path_5005" data-name="Path 5005" d="M1201.141,1445.459c.939-.016,2.824-.043,3.763-.049h.038v.038l.006,2.436c0,2.263-.009,5.057-.044,7.308-.036-2.246-.044-5.049-.044-7.308l.006-2.436.038.038c-.938,0-2.825-.016-3.763-.027h0Z" transform="translate(-1141.741 -1402.755)" fill="#081815" stroke="#081815" stroke-width="0.2"/>
      <path id="Path_5006" data-name="Path 5006" d="M1340.64,1444.689c.06,3.193.06,6.775,0,9.967-.06-3.193-.06-6.775,0-9.967Z" transform="translate(-1276.877 -1402.057)" fill="#081815" stroke="#081815" stroke-width="0.2"/>
      <path id="Path_5007" data-name="Path 5007" d="M1360.211,1482.49c.046,2.82.06,5.973,0,8.8-.06-2.828-.073-5.969,0-8.8Z" transform="translate(-1295.837 -1438.687)" fill="#081815" stroke="#081815" stroke-width="0.2"/>
      <path id="Path_5008" data-name="Path 5008" d="M1364.588,1200.086l0,.124-.006,0c.313-.059.944-.172,1.257-.223.005,0,1.224.031,1.231.031l-.048.045v-.152l.043.045c-.4-.031-.807-.055-1.21-.089-.37.072-.848.153-1.273.225h0Zm0,0c.411-.1.84-.2,1.273-.3.405.018.81.046,1.216.07l.041,0v.242l-.048,0s-1.246-.048-1.217-.049l-.633.085-.634.077h-.006v-.005l0-.124Z" transform="translate(-1300.121 -1164.74)" fill="#081815" stroke="#081815" stroke-width="0.2"/>
      <path id="Path_5009" data-name="Path 5009" d="M1371.637,1210.7c-.311.024-.683.031-.965.024-.347.057-.715.1-1.067.13-.091-.092-.1-.105.012-.019a9.945,9.945,0,0,1,1.042-.2c.327.007.653.027.978.064h0Z" transform="translate(-1304.922 -1175.245)" fill="#081815" stroke="#081815" stroke-width="0.2"/>
      <path id="Path_5010" data-name="Path 5010" d="M1433.248,1219.069q-.1-2.183-.018-4.369.1,2.183.018,4.369Z" transform="translate(-1366.608 -1179.189)" fill="#081815" stroke="#081815" stroke-width="0.2"/>
      <path id="Path_5011" data-name="Path 5011" d="M1403.418,1214.7q.09,2.193,0,4.389-.09-2.193,0-4.389Z" transform="translate(-1337.707 -1179.189)" fill="#081815" stroke="#081815" stroke-width="0.2"/>
      <path id="Path_5012" data-name="Path 5012" d="M1374.676,1226.761q.092,2.007,0,4.015c-.062-1.338-.061-2.679,0-4.015Z" transform="translate(-1309.858 -1190.876)" fill="#081815" stroke="#081815" stroke-width="0.2"/>
      <path id="Path_5013" data-name="Path 5013" d="M1443.454,968.556c-1.326-.132-2.79-.29-4.043-.45l-.309.093.031-.058.049.155-.053-.031.253-.055h.007c.659.082,1.319.16,1.977.25s1.312.176,1.968.272a.581.581,0,0,1,0-.069v.071h0c-1.293-.126-2.7-.281-3.933-.436l-.294.066-.012-.039-.064-.2c.027-.009.329-.1.364-.106,1.355.168,2.708.341,4.06.539h0Z" transform="translate(-1372.265 -940.146)" fill="#081815" stroke="#081815" stroke-width="0.2"/>
      <path id="Path_5014" data-name="Path 5014" d="M1451.58,982.123l0,.1v.006h-.006c-.9-.062-1.9-.18-2.809-.3-.3-.044-.639-.087-.928-.137l-.114.023h-.009v-.006l.006-.113.006.113-.008-.006.111-.033h0c.9.067,1.91.184,2.807.3.3.048.652.081.926.145l0-.1h0Z" transform="translate(-1380.685 -953.403)" fill="#081815" stroke="#081815" stroke-width="0.2"/>
      <path id="Path_5015" data-name="Path 5015" d="M1452.791,980.241a11.413,11.413,0,0,1,2.049.241,11.409,11.409,0,0,1-2.049-.241Z" transform="translate(-1385.6 -951.989)" fill="#081815" stroke="#081815" stroke-width="0.2"/>
      <path id="Path_5016" data-name="Path 5016" d="M1451.366,994.054c-.06-2.362-.061-4.961,0-7.323.061,2.362.06,4.961,0,7.323Z" transform="translate(-1384.175 -958.277)" fill="#081815" stroke="#081815" stroke-width="0.2"/>
      <path id="Path_5017" data-name="Path 5017" d="M1567.59,1008.668c-.07-2.256-.081-4.74-.03-7,.07,2.256.079,4.74.03,7Z" transform="translate(-1496.784 -972.755)" fill="#081815" stroke="#081815" stroke-width="0.2"/>
      <path id="Path_5018" data-name="Path 5018" d="M1473.76,1046.719c-.073-1.831-.107-3.84-.124-5.679l.06.033-.314.185-.011.006h-.011l-1.05-.108-1.05-.116,1.054.071,1.053.081-.022.005.37-.226v.068c.039,1.841.066,3.845.046,5.68h0Z" transform="translate(-1403.496 -1010.837)" fill="#081815" stroke="#081815" stroke-width="0.2"/>
      <path id="Path_5019" data-name="Path 5019" d="M1472.262,1029.518a2.88,2.88,0,0,0-2.4-.213l.027-.037.006,1.464c0,1.419-.009,2.981-.045,4.391-.037-1.408-.043-2.975-.045-4.391l.006-1.464v-.029a2.83,2.83,0,0,1,2.456.279h0Z" transform="translate(-1402.083 -999.316)" fill="#081815" stroke="#081815" stroke-width="0.2"/>
      <path id="Path_5020" data-name="Path 5020" d="M1471.26,1049.385a11.476,11.476,0,0,1,1.157.082,8.986,8.986,0,0,1,.947-.186c-.311.109-.629.2-.949.277a11.135,11.135,0,0,1-1.155-.172h0Z" transform="translate(-1403.496 -1018.891)" fill="#081815" stroke="#081815" stroke-width="0.2"/>
      <path id="Path_5021" data-name="Path 5021" d="M1477.561,1055.578c-.345,0-.693-.006-1.038-.022v-.038c-.01-.7-.007-1.468.039-2.167.047.7.049,1.465.039,2.167l-.037-.039c.333.026.665.056,1,.1h0Z" transform="translate(-1408.591 -1022.835)" fill="#081815" stroke="#081815" stroke-width="0.2"/>
      <path id="Path_5022" data-name="Path 5022" d="M1477.5,1132.528c-.346.008-.7,0-1.042-.018,0-.291-.005-.584,0-.875s.017-.556.04-.834c.023.278.032.556.04.834s.006.556,0,.834l-.04-.043c.333.026.665.056,1,.1h0Z" transform="translate(-1408.53 -1097.886)" fill="#081815" stroke="#081815" stroke-width="0.2"/>
      <path id="Path_5023" data-name="Path 5023" d="M1477.514,1191.6c-.348.014-.7,0-1.045-.016,0-.195,0-.389.01-.584.008-.18.016-.36.037-.54a10.609,10.609,0,0,1,.045,1.08l-.043-.045c.333.022.665.051,1,.105Z" transform="translate(-1408.545 -1155.7)" fill="#081815" stroke="#081815" stroke-width="0.2"/>
      <path id="Path_5024" data-name="Path 5024" d="M1508.135,1056.711q.141,2.644.1,5.293-.142-2.644-.1-5.293Z" transform="translate(-1439.22 -1026.091)" fill="#081815" stroke="#081815" stroke-width="0.2"/>
      <path id="Path_5025" data-name="Path 5025" d="M-717.28,1856.4c6.017-.185,14.841-.046,20.906-.067,4.225-.155,9.3-.4,13.521-.5l4.918-.137-4.916.2c-4.219.12-9.3.384-13.518.558-6.078.013-14.876-.152-20.912-.05h0Z" transform="translate(717.28 -1800.332)" fill="#081815" stroke="#081815" stroke-width="0.2"/>
      <path id="Path_5026" data-name="Path 5026" d="M629.348,849.061l4.352.092c-.084.2-.032-10.84-.057-10.792a3.024,3.024,0,0,0-1.3-2.369,1.974,1.974,0,0,0-2.887,1.608,5.733,5.733,0,0,0-.06,1.134l0,1.145c0,2.287-.026,6.9-.043,9.183Zm0,0c-.016-2.288-.039-6.888-.043-9.175,0-.38,0-1.359,0-1.726a2.728,2.728,0,0,1,.887-2.085,1.981,1.981,0,0,1,2.676.172,3.39,3.39,0,0,1,.891,2.108s-.029,10.827-.026,10.829v.032H633.7l-4.351-.154h0Z" transform="translate(-587.606 -811.859)" fill="#081815" stroke="#081815" stroke-width="0.2"/>
      <path id="Path_5027" data-name="Path 5027" d="M791.777,871.286l4.068.135c-.063.153-.024-10.454-.044-10.414a3.281,3.281,0,0,0-.8-1.962,1.724,1.724,0,0,0-2.759.266,3.532,3.532,0,0,0-.426,2.095c0,.709-.011,4.686-.012,5.481l-.021,4.4h0Zm0,0c-.012-2.19-.029-6.591-.032-8.781l0-1.1a6.413,6.413,0,0,1,.045-1.1c.225-1.671,1.978-2.608,3.272-1.322a3.315,3.315,0,0,1,.826,2.021s-.022,10.44-.019,10.441v.023c-.018,0-4.069-.185-4.09-.181h0Z" transform="translate(-745.017 -833.902)" fill="#081815" stroke="#081815" stroke-width="0.2"/>
      <path id="Path_5028" data-name="Path 5028" d="M1226.608,926.944l3.16.118-.022.021s-.022-9.166-.022-9.149a3.081,3.081,0,0,0-.624-1.722,1.266,1.266,0,0,0-2.211.4,4.129,4.129,0,0,0-.246,1.838l0,.943c0,1.883-.019,5.677-.032,7.56h0Zm0,0c-.012-1.884-.03-5.669-.032-7.552,0-.311,0-1.119,0-1.42a2.425,2.425,0,0,1,.851-2.136,1.312,1.312,0,0,1,1.745.316,3.123,3.123,0,0,1,.642,1.774s-.025,9.156-.022,9.157v.022h-.022l-3.157-.16Z" transform="translate(-1166.383 -889.375)" fill="#081815" stroke="#081815" stroke-width="0.2"/>
      <path id="Path_5029" data-name="Path 5029" d="M1103.342,909.244l3.16.123c-.055.136-.027-9.506-.044-9.471-.08-.878-.417-2.049-1.4-2.282-1.053-.192-1.629,1-1.666,1.892-.017.133-.009.349-.011.484,0,.307,0,1.14,0,1.458,0,1.942-.02,5.855-.032,7.8h0Zm0,0c-.012-1.943-.03-5.847-.032-7.79,0-.451-.006-1.267,0-1.709a2.849,2.849,0,0,1,.465-1.635,1.266,1.266,0,0,1,1.763-.388,2.832,2.832,0,0,1,1.01,2.174c0,.024-.019,9.49-.023,9.513h-.021l-3.157-.164h0Z" transform="translate(-1046.935 -871.82)" fill="#081815" stroke="#081815" stroke-width="0.2"/>
      <path id="Path_5030" data-name="Path 5030" d="M944.325,894.892l4.338-.045-.022.022s-.021-11.828-.021-11.81a3.047,3.047,0,0,0-1.425-2.519,1.867,1.867,0,0,0-2.518.935,3.654,3.654,0,0,0-.32,1.773c0,1.087-.033,10.339-.036,11.644Zm0,0c-.006-1.634-.036-10.517-.036-11.952a2.723,2.723,0,0,1,1.147-2.414,1.918,1.918,0,0,1,2.311.291,3.473,3.473,0,0,1,.959,2.233s-.023,11.816-.021,11.819v.022h-4.36Z" transform="translate(-892.842 -855.106)" fill="#081815" stroke="#081815" stroke-width="0.2"/>
      <path id="Path_5031" data-name="Path 5031" d="M645.885,853.966c.851.084,2.561.263,3.409.354l-.027.022a2.531,2.531,0,0,0-1.589-2.662c-1.285-.223-1.867,1.217-1.795,2.286h0Zm0,0a2.776,2.776,0,0,1,.349-1.637,1.412,1.412,0,0,1,1.456-.7,2.534,2.534,0,0,1,1.627,2.712v.024l-.027,0c-.85-.1-2.557-.3-3.4-.4h0Z" transform="translate(-603.67 -827.338)" fill="#081815" stroke="#081815" stroke-width="0.2"/>
      <path id="Path_5032" data-name="Path 5032" d="M694.906,852.34q.062,1.254,0,2.507-.062-1.254,0-2.507Z" transform="translate(-651.151 -828.048)" fill="#081815" stroke="#081815" stroke-width="0.2"/>
      <path id="Path_5033" data-name="Path 5033" d="M648.56,896.15c1.044.076,2.191.2,3.228.36-1.046-.076-2.19-.2-3.228-.36Z" transform="translate(-606.27 -870.501)" fill="#081815" stroke="#081815" stroke-width="0.2"/>
      <path id="Path_5034" data-name="Path 5034" d="M648.529,953.425c.012-2.343-.067-7.353,0-9.577L645,943.465c.092-.192-.011,9.884.018,9.845-.089-.033,3.313.142,3.294.136L645,953.325h-.015v-.015l-.016-9.876V943.4l.034,0,3.55.4c0,2.4-.013,7.22-.025,9.625h0Z" transform="translate(-602.791 -916.289)" fill="#081815" stroke="#081815" stroke-width="0.2"/>
      <path id="Path_5035" data-name="Path 5035" d="M695.926,961.52c-.1-3.207-.072-6.455.08-9.66.1,3.207.071,6.455-.08,9.66Z" transform="translate(-652.114 -924.487)" fill="#081815" stroke="#081815" stroke-width="0.2"/>
      <path id="Path_5036" data-name="Path 5036" d="M645.95,1104.022a11.439,11.439,0,0,1,3.507.3,13.361,13.361,0,0,1-3.507-.3Z" transform="translate(-603.741 -1071.908)" fill="#081815" stroke="#081815" stroke-width="0.2"/>
      <path id="Path_5037" data-name="Path 5037" d="M647.29,1026.7c1.127.061,2.366.172,3.486.315-1.127-.062-2.367-.174-3.486-.315Z" transform="translate(-605.039 -997.01)" fill="#081815" stroke="#081815" stroke-width="0.2"/>
      <path id="Path_5038" data-name="Path 5038" d="M645.67,1177.581c1.145.068,2.4.187,3.536.337-1.145-.068-2.4-.189-3.536-.337Z" transform="translate(-603.47 -1143.219)" fill="#081815" stroke="#081815" stroke-width="0.2"/>
      <path id="Path_5039" data-name="Path 5039" d="M804.386,874.2c.819.081,2.467.252,3.285.34l-.027.022a2.437,2.437,0,0,0-1.53-2.563c-1.234-.217-1.8,1.174-1.729,2.2Zm0,0a2.691,2.691,0,0,1,.335-1.578,1.361,1.361,0,0,1,1.4-.671,2.442,2.442,0,0,1,1.568,2.614v.024l-.027,0c-.818-.093-2.463-.286-3.28-.388h0Z" transform="translate(-757.264 -847.025)" fill="#081815" stroke="#081815" stroke-width="0.2"/>
      <path id="Path_5040" data-name="Path 5040" d="M851.6,872.7a23.409,23.409,0,0,1,0,2.415,23.478,23.478,0,0,1,0-2.415Z" transform="translate(-802.99 -847.778)" fill="#081815" stroke="#081815" stroke-width="0.2"/>
      <path id="Path_5041" data-name="Path 5041" d="M806.98,914.93c1.006.072,2.112.195,3.11.346-1.007-.072-2.11-.2-3.11-.346Z" transform="translate(-759.785 -888.7)" fill="#081815" stroke="#081815" stroke-width="0.2"/>
      <path id="Path_5042" data-name="Path 5042" d="M806.89,970.01c.012-2.255-.067-7.088,0-9.226l-3.4-.368c.092-.192-.011,9.522.018,9.483-.089-.034,3.19.138,3.172.131l-3.188-.116h-.015V969.9l-.016-9.513v-.034l.034,0,3.4.38.022,0c0,2.316-.013,6.956-.024,9.272h0Z" transform="translate(-756.374 -932.714)" fill="#081815" stroke="#081815" stroke-width="0.2"/>
      <path id="Path_5043" data-name="Path 5043" d="M852.49,977.877c-.1-3.09-.075-6.218.076-9.306.1,3.09.073,6.218-.076,9.306Z" transform="translate(-803.828 -940.68)" fill="#081815" stroke="#081815" stroke-width="0.2"/>
      <path id="Path_5044" data-name="Path 5044" d="M804.451,1115.069a10.655,10.655,0,0,1,3.379.289,12.392,12.392,0,0,1-3.379-.289Z" transform="translate(-757.334 -1082.611)" fill="#081815" stroke="#081815" stroke-width="0.2"/>
      <path id="Path_5045" data-name="Path 5045" d="M805.76,1040.66c1.087.058,2.279.165,3.359.3-1.087-.058-2.279-.166-3.359-.3Z" transform="translate(-758.603 -1010.537)" fill="#081815" stroke="#081815" stroke-width="0.2"/>
      <path id="Path_5046" data-name="Path 5046" d="M804.22,1186.04c1.1.065,2.313.18,3.407.324-1.1-.065-2.313-.18-3.407-.324Z" transform="translate(-757.11 -1151.416)" fill="#081815" stroke="#081815" stroke-width="0.2"/>
      <path id="Path_5047" data-name="Path 5047" d="M1114.171,907.513c.645.073,1.94.23,2.584.31l-.029.025c.054-.882-.409-2.489-1.522-2.372-.861.209-1.047,1.276-1.033,2.038h0Zm0,0c-.043-.775.141-1.872,1.023-2.09,1.167-.126,1.643,1.5,1.584,2.426v.028l-.03,0c-.643-.088-1.935-.269-2.578-.362h0Z" transform="translate(-1057.459 -879.482)" fill="#081815" stroke="#081815" stroke-width="0.2"/>
      <path id="Path_5048" data-name="Path 5048" d="M1151.1,906.03a19.974,19.974,0,0,1,0,2.229,19.974,19.974,0,0,1,0-2.229Z" transform="translate(-1093.215 -880.076)" fill="#081815" stroke="#081815" stroke-width="0.2"/>
      <path id="Path_5049" data-name="Path 5049" d="M1116.21,945.01a24.515,24.515,0,0,1,2.445.321,24.521,24.521,0,0,1-2.445-.321Z" transform="translate(-1059.44 -917.849)" fill="#081815" stroke="#081815" stroke-width="0.2"/>
      <path id="Path_5050" data-name="Path 5050" d="M1115.944,995.8c.012-2.078-.067-6.555,0-8.512l-2.674-.34c.094-.192-.012,8.789.017,8.751-.078-.029,2.51.126,2.494.121s-2.508-.105-2.519-.109-.015-8.788-.017-8.793v-.034l.034,0,2.672.35.022,0v.022c0,2.128-.013,6.41-.026,8.538Z" transform="translate(-1056.563 -958.423)" fill="#081815" stroke="#081815" stroke-width="0.2"/>
      <path id="Path_5051" data-name="Path 5051" d="M1151.385,1003.139c-.1-2.851-.086-5.739.06-8.589.106,2.851.085,5.739-.06,8.589Z" transform="translate(-1093.462 -965.855)" fill="#081815" stroke="#081815" stroke-width="0.2"/>
      <path id="Path_5052" data-name="Path 5052" d="M1114.23,1129.509a6.643,6.643,0,0,1,2.656.267,7.615,7.615,0,0,1-2.656-.267Z" transform="translate(-1057.521 -1096.599)" fill="#081815" stroke="#081815" stroke-width="0.2"/>
      <path id="Path_5053" data-name="Path 5053" d="M1115.26,1061.061q1.328.079,2.642.28-1.328-.077-2.642-.28Z" transform="translate(-1058.52 -1030.306)" fill="#081815" stroke="#081815" stroke-width="0.2"/>
      <path id="Path_5054" data-name="Path 5054" d="M1114.03,1195.251q1.346.088,2.679.3-1.346-.088-2.679-.3Z" transform="translate(-1057.328 -1160.342)" fill="#081815" stroke="#081815" stroke-width="0.2"/>
      <path id="Path_5055" data-name="Path 5055" d="M1235.694,928.48c.871.1,1.73.192,2.584.3l-.029.024c.05-.883-.423-2.371-1.517-2.266-.842.18-1.058,1.2-1.038,1.946h0Zm0,0c-.048-.76.165-1.808,1.028-2,1.156-.114,1.644,1.417,1.577,2.349-.875-.113-1.748-.232-2.606-.351h0Z" transform="translate(-1175.218 -899.889)" fill="#081815" stroke="#081815" stroke-width="0.2"/>
      <path id="Path_5056" data-name="Path 5056" d="M1272.636,927.06a18.24,18.24,0,0,1,0,2.13,18.24,18.24,0,0,1,0-2.13Z" transform="translate(-1210.992 -900.455)" fill="#081815" stroke="#081815" stroke-width="0.2"/>
      <path id="Path_5057" data-name="Path 5057" d="M1237.75,964.351a24.629,24.629,0,0,1,2.445.306c-.821-.061-1.632-.163-2.445-.306Z" transform="translate(-1177.217 -936.591)" fill="#081815" stroke="#081815" stroke-width="0.2"/>
      <path id="Path_5058" data-name="Path 5058" d="M1237.415,1012.921c.012-1.983-.067-6.27,0-8.134l-2.674-.325c.093-.191-.013,8.4.017,8.361-.081-.032,2.51.122,2.493.116l-2.507-.1h-.013v-.013l-.017-8.391v-.034l.034.005,2.672.335.022,0c0,2.044-.013,6.137-.026,8.181h0l0,0Z" transform="translate(-1174.271 -975.4)" fill="#081815" stroke="#081815" stroke-width="0.2"/>
      <path id="Path_5059" data-name="Path 5059" d="M1272.926,1019.889c-.1-2.725-.086-5.486.06-8.208.105,2.725.084,5.486-.06,8.208Z" transform="translate(-1211.239 -982.455)" fill="#081815" stroke="#081815" stroke-width="0.2"/>
      <path id="Path_5060" data-name="Path 5060" d="M1235.771,1140.54a6.66,6.66,0,0,1,2.657.254,7.611,7.611,0,0,1-2.657-.254Z" transform="translate(-1175.298 -1107.286)" fill="#081815" stroke="#081815" stroke-width="0.2"/>
      <path id="Path_5061" data-name="Path 5061" d="M1236.8,1075.25q1.326.072,2.642.267-1.326-.072-2.642-.267Z" transform="translate(-1176.297 -1044.056)" fill="#081815" stroke="#081815" stroke-width="0.2"/>
      <path id="Path_5062" data-name="Path 5062" d="M1235.57,1203.471q1.346.081,2.678.286-1.345-.081-2.678-.286Z" transform="translate(-1175.105 -1168.307)" fill="#081815" stroke="#081815" stroke-width="0.2"/>
      <path id="Path_5063" data-name="Path 5063" d="M1466.141,1727.74a46.686,46.686,0,0,1-4.76.777,46.653,46.653,0,0,1,4.76-.777Z" transform="translate(-1393.923 -1676.344)" fill="#081815" stroke="#081815" stroke-width="0.2"/>
    </g>
  </g>
</svg>
