<?xml version="1.0" encoding="UTF-8"?><svg id="Layer_2" xmlns="http://www.w3.org/2000/svg" viewBox="0 0 201.92 164.13"><defs><style>.cls-1,.cls-2{fill:#efb81c;}.cls-3{fill:#f0c41a;}.cls-4{opacity:.57;}.cls-4,.cls-5{fill:#fff;}.cls-2{opacity:.5;}.cls-5{opacity:.22;}</style></defs><g id="Layer_1-2"><g><path class="cls-3" d="M153.92,0H47.99c-1.86,0-3.65,.76-4.98,2.12L2.86,43.07c-3.66,3.73-3.82,9.8-.36,13.74l91.41,104.08c3.79,4.32,10.34,4.32,14.13,0L199.43,56.81c3.46-3.94,3.3-10.01-.36-13.74L158.91,2.12c-1.33-1.36-3.12-2.12-4.98-2.12Z"/><polygon class="cls-3" points="47.07 4.8 53.9 51.07 .01 51.07 47.07 4.8"/><polygon class="cls-1" points="100.97 161.89 53.9 51.07 .01 51.07 100.97 161.89"/><g><polygon class="cls-1" points="53.91 51.07 47.08 4.8 100.97 4.8 53.91 51.07"/><polygon class="cls-1" points="148.02 51.07 154.86 4.8 100.97 4.8 148.02 51.07"/></g><polygon class="cls-3" points="154.87 4.8 148.03 51.07 201.92 51.07 154.87 4.8"/><polygon class="cls-1" points="100.97 161.89 148.03 51.07 201.92 51.07 100.97 161.89"/><polygon class="cls-3" points="148.02 51.07 100.97 161.89 53.9 51.07 100.97 4.8 148.02 51.07"/><polygon class="cls-2" points="148.02 51.07 100.97 161.89 53.9 51.07 100.96 57.18 148.02 51.07"/><path class="cls-4" d="M100.97,4.8L57.72,51.07c-.94,1.01-2.53,1.06-3.54,.12-1.07-.99-1.05-2.7,.02-3.68L100.97,4.8h0Z"/><path class="cls-4" d="M100.97,4.8l43.24,46.27c.94,1.01,2.53,1.06,3.54,.12,1.07-.99,1.05-2.7-.02-3.68L100.97,4.8h0Z"/><path class="cls-5" d="M100.97,161.89l43.24-108.07c.94-2.36,2.53-2.48,3.54-.28,1.07,2.3,1.05,6.31-.02,8.58l-46.76,99.77h0Z"/><path class="cls-5" d="M100.97,161.89L57.72,53.82c-.94-2.36-2.53-2.48-3.54-.28-1.07,2.3-1.05,6.31,.02,8.58l46.76,99.77h0Z"/></g></g></svg>