<svg xmlns="http://www.w3.org/2000/svg" width="32" height="32.955" viewBox="0 0 32 32.955">
  <g id="Group_5707" data-name="Group 5707" transform="translate(12)">
    <path id="chevron-left-solid_1_" data-name="chevron-left-solid (1)" d="M28.023,52.859,42.69,38.193a1.811,1.811,0,0,1,2.561,0L46.962,39.9a1.811,1.811,0,0,1,0,2.558L35.341,54.14,46.964,65.818a1.811,1.811,0,0,1,0,2.558L45.25,70.087a1.811,1.811,0,0,1-2.561,0L28.023,55.42A1.811,1.811,0,0,1,28.023,52.859Z" transform="translate(-27.493 -37.662)" fill="#fff"/>
    <path id="chevron-left-solid_1_2" data-name="chevron-left-solid (1)" d="M46.962,52.859,32.3,38.193a1.811,1.811,0,0,0-2.561,0L28.023,39.9a1.811,1.811,0,0,0,0,2.558L39.644,54.14,28.021,65.818a1.811,1.811,0,0,0,0,2.558l1.711,1.711a1.811,1.811,0,0,0,2.561,0L46.962,55.42A1.811,1.811,0,0,0,46.962,52.859Z" transform="translate(-39.492 -37.662)" fill="#fff"/>
  </g>
</svg>
