<svg xmlns="http://www.w3.org/2000/svg" width="30" height="30.006" viewBox="0 0 30 30.006">
  <path id="globe-solid" d="M20.357,17.2C19.48,11.793,17.411,8,15,8s-4.477,3.793-5.354,9.2ZM9.2,23a37.918,37.918,0,0,0,.2,3.872H20.6A37.918,37.918,0,0,0,20.8,23a37.919,37.919,0,0,0-.2-3.872H9.4A37.918,37.918,0,0,0,9.2,23ZM28.838,17.2A15.035,15.035,0,0,0,19.28,8.629,20.418,20.418,0,0,1,22.3,17.2ZM10.72,8.629A15.025,15.025,0,0,0,1.168,17.2H7.7A20.335,20.335,0,0,1,10.72,8.629Zm18.766,10.5H22.547c.127,1.27.2,2.571.2,3.872s-.073,2.6-.2,3.872H29.48A14.874,14.874,0,0,0,30,23a15.134,15.134,0,0,0-.514-3.872ZM7.26,23c0-1.3.073-2.6.2-3.872H.52a14.667,14.667,0,0,0,0,7.743H7.453C7.332,25.6,7.26,24.3,7.26,23Zm2.39,5.808c.877,5.4,2.946,9.2,5.354,9.2s4.477-3.793,5.354-9.2Zm9.637,8.566a15.049,15.049,0,0,0,9.558-8.566H22.311A20.418,20.418,0,0,1,19.286,37.377ZM1.168,28.811a15.035,15.035,0,0,0,9.558,8.566A20.418,20.418,0,0,1,7.7,28.811H1.168Z" transform="translate(0 -8)" fill="#ff5d47"/>
</svg>
